<svg xmlns="http://www.w3.org/2000/svg" viewBox="0 0 100 100">
  <style>
    .profile { fill: none; stroke: #0F172A; stroke-width: 2.2; stroke-linecap: round; }
    .branch { fill: none; stroke: #4A3728; stroke-width: 1.2; stroke-linecap: round; }
    .flower { fill: #915F78; }
    .flower-accent { fill: #A66C8E; }
  </style>
  <!-- Face Profile -->
  <path class="profile" d="M22,88 Q12,78 12,48 Q12,12 48,12 Q75,12 80,35 Q82,40 80,45 Q75,50 78,55 Q80,60 75,65 Q70,70 75,75 Q80,80 80,92"/>
  
  <!-- Tree Structure -->
  <path class="branch" d="M22,88 C28,65 32,55 58,32"/>
  <path class="branch" d="M35,68 C45,62 62,50 68,22"/>
  <path class="branch" d="M28,80 C35,75 45,78 52,65"/>
  
  <!-- Flowers (Organic Clusters) -->
  <circle class="flower" cx="58" cy="32" r="4"/>
  <circle class="flower-accent" cx="54" cy="35" r="3"/>
  <circle class="flower" cx="62" cy="28" r="3.5"/>
  <circle class="flower-accent" cx="68" cy="22" r="3"/>
  <circle class="flower" cx="48" cy="62" r="4"/>
  <circle class="flower-accent" cx="42" cy="58" r="3.5"/>
  <circle class="flower" cx="32" cy="72" r="3"/>
  <circle class="flower" cx="18" cy="48" r="3.5"/>
  <circle class="flower-accent" cx="24" cy="42" r="2.5"/>
  <circle class="flower" cx="52" cy="65" r="3"/>
  <circle class="flower-accent" cx="58" cy="60" r="2.5"/>
  <circle class="flower" cx="72" cy="40" r="3"/>
  <circle class="flower-accent" cx="75" cy="35" r="2.5"/>
  <!-- Extra flowers for richness -->
  <circle class="flower" cx="64" cy="45" r="2.5"/>
  <circle class="flower-accent" cx="40" cy="35" r="2.5"/>
  <circle class="flower" cx="35" cy="50" r="2.5"/>
</svg>
